<?xml version="1.0" encoding="utf-8"?><svg xmlns="http://www.w3.org/2000/svg" xmlns:xlink="http://www.w3.org/1999/xlink"><symbol viewBox="0 0 34 32" id="btn-downloand" xmlns="http://www.w3.org/2000/svg"><title>pe-7s-cloud-download</title><path d="M-.009 14.494c.045-.304.071-.608.13-.907.447-2.302 1.748-3.933 3.861-4.925.206-.098.478-.121.617-.273.134-.143.112-.42.188-.626.572-1.578 1.604-2.668 3.271-3.07 1.023-.246 2.011-.094 2.977.286.054.022.103.04.165.067 1.158-2.324 2.968-3.902 5.457-4.657a8.585 8.585 0 0 1 5.073.004c1.251.38 2.36 1.023 3.343 1.886a8.65 8.65 0 0 1 2.275 3.106c.523 1.198.742 2.454.733 3.763.268.027.527.049.787.076a5.731 5.731 0 0 1 2.4.854c1.457.907 2.471 2.15 2.856 3.852.076.34.107.693.161 1.037.004.045.018.085.031.125v.706c-.045.299-.067.608-.13.903-.425 2.06-1.622 3.522-3.482 4.456-.845.425-1.752.608-2.695.608h-7.965v-1.14h.192c2.592 0 5.184-.027 7.777.009 1.877.027 4.072-1.202 4.831-3.325.702-1.962.358-3.75-1.006-5.332a4.686 4.686 0 0 0-3.003-1.627c-.478-.063-.97-.036-1.453-.049-.161-.004-.322 0-.492 0 .013-.241.018-.469.036-.693.134-1.645-.152-3.209-1.028-4.617-1.234-1.989-2.968-3.321-5.309-3.723-1.949-.331-3.772-.018-5.457 1.059-1.01.648-1.895 1.403-2.503 2.44-.313.536-.55 1.117-.822 1.676-.018.04-.04.08-.063.134-.34-.17-.684-.322-1.01-.51-.599-.344-1.251-.402-1.908-.349-.965.072-1.752.523-2.387 1.238-.393.447-.594.988-.679 1.573a5.069 5.069 0 0 1-.112.572c-.013.058-.08.121-.139.143-.362.148-.729.273-1.086.425-.894.384-1.596.997-2.163 1.788-.456.635-.804 1.305-.979 2.069-.737 3.218 1.211 6.226 4.313 6.959.389.089.796.134 1.193.134 2.436.013 4.872.004 7.307.004h.197v1.14h-.192c-2.413 0-4.827.004-7.24 0-3.441-.004-5.908-2.36-6.65-5.171-.103-.389-.125-.8-.188-1.202a2.282 2.282 0 0 0-.031-.161 22.634 22.634 0 0 1 0-.737z"/><path d="M16.59 29.855V14.87h1.126v14.994c1.256-1.256 2.498-2.503 3.732-3.741.299.299.559.559.809.813-1.685 1.685-3.374 3.379-5.082 5.082-1.707-1.685-3.423-3.379-5.131-5.059l.778-.778c1.225 1.225 2.467 2.467 3.705 3.709.022-.009.04-.022.063-.036z"/></symbol><symbol viewBox="0 0 16 28" id="facebook" xmlns="http://www.w3.org/2000/svg"><title>facebook</title><path d="M14.984.187v4.125h-2.453c-1.922 0-2.281.922-2.281 2.25v2.953h4.578l-.609 4.625H10.25v11.859H5.469V14.14H1.485V9.515h3.984V6.109C5.469 2.156 7.891 0 11.422 0c1.687 0 3.141.125 3.563.187z"/></symbol><symbol viewBox="0 0 36 28" id="google-plus" xmlns="http://www.w3.org/2000/svg"><title>google-plus</title><path d="M22.453 14.266c0 6.547-4.391 11.188-11 11.188C5.125 25.454 0 20.329 0 14.001S5.125 2.548 11.453 2.548c3.094 0 5.672 1.125 7.672 3l-3.109 2.984c-.844-.812-2.328-1.766-4.562-1.766C7.548 6.766 4.36 10 4.36 14s3.187 7.234 7.094 7.234c4.531 0 6.234-3.266 6.5-4.937h-6.5v-3.938h10.813c.109.578.187 1.156.187 1.906zM36 12.359v3.281h-3.266v3.266h-3.281V15.64h-3.266v-3.281h3.266V9.093h3.281v3.266H36z"/></symbol><symbol viewBox="0 0 26 28" id="twitter" xmlns="http://www.w3.org/2000/svg"><title>twitter</title><path d="M25.312 6.375a10.85 10.85 0 0 1-2.531 2.609c.016.219.016.438.016.656 0 6.672-5.078 14.359-14.359 14.359-2.859 0-5.516-.828-7.75-2.266.406.047.797.063 1.219.063 2.359 0 4.531-.797 6.266-2.156a5.056 5.056 0 0 1-4.719-3.5c.313.047.625.078.953.078.453 0 .906-.063 1.328-.172a5.048 5.048 0 0 1-4.047-4.953v-.063a5.093 5.093 0 0 0 2.281.641 5.044 5.044 0 0 1-2.25-4.203c0-.938.25-1.797.688-2.547a14.344 14.344 0 0 0 10.406 5.281 5.708 5.708 0 0 1-.125-1.156 5.045 5.045 0 0 1 5.047-5.047 5.03 5.03 0 0 1 3.687 1.594 9.943 9.943 0 0 0 3.203-1.219 5.032 5.032 0 0 1-2.219 2.781c1.016-.109 2-.391 2.906-.781z"/></symbol></svg>