<!-- Generated by IcoMoon.io -->
<svg version="1.1" xmlns="http://www.w3.org/2000/svg" width="34" height="32" viewBox="0 0 34 32">
<title>pe-7s-cloud-download</title>
<path d="M-0.009 14.494c0.045-0.304 0.071-0.608 0.13-0.907 0.447-2.302 1.748-3.933 3.861-4.925 0.206-0.098 0.478-0.121 0.617-0.273 0.134-0.143 0.112-0.42 0.188-0.626 0.572-1.578 1.604-2.668 3.271-3.070 1.023-0.246 2.011-0.094 2.977 0.286 0.054 0.022 0.103 0.040 0.165 0.067 1.158-2.324 2.968-3.902 5.457-4.657 1.685-0.509 3.383-0.509 5.073 0.004 1.251 0.38 2.36 1.023 3.343 1.886 0.988 0.867 1.752 1.895 2.275 3.106 0.523 1.198 0.742 2.454 0.733 3.763 0.268 0.027 0.527 0.049 0.787 0.076 0.867 0.098 1.667 0.398 2.4 0.854 1.457 0.907 2.471 2.15 2.856 3.852 0.076 0.34 0.107 0.693 0.161 1.037 0.004 0.045 0.018 0.085 0.031 0.125 0 0.237 0 0.469 0 0.706-0.045 0.299-0.067 0.608-0.13 0.903-0.425 2.060-1.622 3.522-3.482 4.456-0.845 0.425-1.752 0.608-2.695 0.608-2.588 0-5.171 0-7.759 0-0.067 0-0.13 0-0.206 0 0-0.38 0-0.746 0-1.14 0.063 0 0.125 0 0.192 0 2.592 0 5.184-0.027 7.777 0.009 1.877 0.027 4.072-1.202 4.831-3.325 0.702-1.962 0.358-3.75-1.006-5.332-0.796-0.921-1.806-1.466-3.003-1.627-0.478-0.063-0.97-0.036-1.453-0.049-0.161-0.004-0.322 0-0.492 0 0.013-0.241 0.018-0.469 0.036-0.693 0.134-1.645-0.152-3.209-1.028-4.617-1.234-1.989-2.968-3.321-5.309-3.723-1.949-0.331-3.772-0.018-5.457 1.059-1.010 0.648-1.895 1.403-2.503 2.44-0.313 0.536-0.55 1.117-0.822 1.676-0.018 0.040-0.040 0.080-0.063 0.134-0.34-0.17-0.684-0.322-1.010-0.51-0.599-0.344-1.251-0.402-1.908-0.349-0.965 0.072-1.752 0.523-2.387 1.238-0.393 0.447-0.594 0.988-0.679 1.573-0.027 0.192-0.063 0.384-0.112 0.572-0.013 0.058-0.080 0.121-0.139 0.143-0.362 0.148-0.729 0.273-1.086 0.425-0.894 0.384-1.596 0.997-2.163 1.788-0.456 0.635-0.804 1.305-0.979 2.069-0.737 3.218 1.211 6.226 4.313 6.959 0.389 0.089 0.796 0.134 1.193 0.134 2.436 0.013 4.872 0.004 7.307 0.004 0.063 0 0.121 0 0.197 0 0 0.375 0 0.746 0 1.14-0.063 0-0.125 0-0.192 0-2.413 0-4.827 0.004-7.24 0-3.441-0.004-5.908-2.36-6.65-5.171-0.103-0.389-0.125-0.8-0.188-1.202-0.009-0.054-0.018-0.107-0.031-0.161-0.004-0.246-0.004-0.492 0-0.737z"></path>
<path d="M16.59 29.855c0-4.992 0-9.98 0-14.985 0.38 0 0.746 0 1.126 0 0 4.992 0 9.989 0 14.994 1.256-1.256 2.498-2.503 3.732-3.741 0.299 0.299 0.559 0.559 0.809 0.813-1.685 1.685-3.374 3.379-5.082 5.082-1.707-1.685-3.423-3.379-5.131-5.059 0.264-0.264 0.523-0.523 0.778-0.778 1.225 1.225 2.467 2.467 3.705 3.709 0.022-0.009 0.040-0.022 0.063-0.036z"></path>
</svg>
