<?xml version="1.0" encoding="utf-8"?>
<svg xmlns="http://www.w3.org/2000/svg"
	xmlns:xlink="http://www.w3.org/1999/xlink"
	width="54px" height="72px" viewBox="0 0 27 36">
<path fillRule="evenodd" d="M 26.42 34.19C 26.2 35.1 25.37 35.78 24.37 35.78 24.37 35.78 10.26 35.78 10.26 35.78 9.64 35.78 9.05 35.51 8.65 35.04 8.65 35.04 2.51 28.3 2.51 28.3 2.05 27.86 1.78 27.24 1.78 26.57 1.78 25.91 2.04 25.29 2.52 24.82 2.52 24.82 2.67 24.67 2.67 24.67 3.15 24.21 3.76 23.95 4.43 23.95 5.1 23.95 5.69 24.21 6.17 24.67 6.17 24.67 8.46 26.98 8.46 26.98 8.46 26.98 8.46 11.07 8.46 11.07 8.46 9.71 9.77 8.71 11.16 8.71 11.16 8.71 11.39 8.71 11.39 8.71 12.78 8.71 13.77 9.71 13.77 11.07 13.77 11.07 13.77 17.25 13.77 17.25 14.3 16.97 14.82 16.67 15.36 16.67 15.36 16.67 15.58 16.67 15.58 16.67 16.98 16.67 18.01 17.92 18.01 19.28 18.01 19.28 18.01 19.38 18.01 19.38 18.54 19.1 19.02 18.8 19.55 18.8 19.55 18.8 19.78 18.8 19.78 18.8 21.17 18.8 22.26 20.05 22.26 21.41 22.26 21.41 22.26 21.45 22.26 21.45 22.79 21.17 23.21 20.92 23.75 20.92 23.75 20.92 23.97 20.92 23.97 20.92 25.37 20.92 26.5 22.12 26.5 23.48 26.5 23.48 26.5 34.18 26.5 34.18 26.5 34.18 26.42 34.19 26.42 34.19ZM 23.97 21.98C 23.97 21.98 23.75 21.98 23.75 21.98 23.03 21.98 22.38 22.54 22.27 23.22 22.27 23.22 21.19 23.19 21.19 23.19 21.19 23.19 21.19 21.41 21.19 21.41 21.19 20.64 20.59 19.86 19.78 19.86 19.78 19.86 19.55 19.86 19.55 19.86 18.83 19.86 18.16 20.44 18.05 21.13 18.05 21.13 16.95 21.12 16.95 21.12 16.95 21.12 16.95 19.28 16.95 19.28 16.95 18.5 16.39 17.73 15.58 17.73 15.58 17.73 15.36 17.73 15.36 17.73 14.64 17.73 13.94 18.32 13.83 19 13.83 19 12.7 18.98 12.7 18.98 12.7 18.98 12.7 11.07 12.7 11.07 12.7 10.29 12.2 9.78 11.39 9.78 11.39 9.78 11.16 9.78 11.16 9.78 10.35 9.78 9.52 10.29 9.52 11.07 9.52 11.07 9.52 29.49 9.52 29.49 9.52 29.49 5.43 25.43 5.43 25.43 5.15 25.16 4.87 25.01 4.47 25.01 4.08 25.01 3.71 25.16 3.43 25.43 3.43 25.43 3.27 25.58 3.27 25.58 3 25.85 2.85 26.2 2.85 26.57 2.85 26.95 3 27.3 3.27 27.56 3.27 27.56 9.45 34.34 9.45 34.34 9.65 34.58 9.95 34.71 10.26 34.71 10.26 34.71 24.37 34.71 24.37 34.71 24.95 34.71 25.42 34.27 25.42 33.71 25.42 33.71 25.44 23.44 25.44 23.44 25.44 22.66 24.78 21.98 23.97 21.98ZM 18.54 9.24C 18.54 9.24 22.26 9.24 22.26 9.24 22.26 9.24 22.26 10.31 22.26 10.31 22.26 10.31 18.54 10.31 18.54 10.31 18.54 10.31 18.54 9.24 18.54 9.24ZM 15.2 5.63C 15.2 5.63 17.96 2.94 17.96 2.94 17.96 2.94 18.7 3.71 18.7 3.71 18.7 3.71 15.94 6.39 15.94 6.39 15.94 6.39 15.2 5.63 15.2 5.63ZM 10.58 0.22C 10.58 0.22 11.64 0.22 11.64 0.22 11.64 0.22 11.64 3.94 11.64 3.94 11.64 3.94 10.58 3.94 10.58 3.94 10.58 3.94 10.58 0.22 10.58 0.22ZM 3.83 3.71C 3.83 3.71 4.57 2.94 4.57 2.94 4.57 2.94 7.33 5.63 7.33 5.63 7.33 5.63 6.6 6.39 6.6 6.39 6.6 6.39 3.83 3.71 3.83 3.71ZM 4.21 10.31C 4.21 10.31 0.5 10.31 0.5 10.31 0.5 10.31 0.5 9.24 0.5 9.24 0.5 9.24 4.21 9.24 4.21 9.24 4.21 9.24 4.21 10.31 4.21 10.31Z" fill="rgb(25,183,151)"/></svg>