<?xml version="1.0" encoding="utf-8"?>
<svg xmlns="http://www.w3.org/2000/svg"
	xmlns:xlink="http://www.w3.org/1999/xlink"
	width="74px" height="72px" viewBox="0 0 37 36">
<path fillRule="evenodd" d="M 15.01 35.42C 15.04 35.42 15.63 35.42 16.57 35.42 16.57 35.42 24.89 35.42 24.89 35.42 24.89 35.42 28.91 35.42 28.91 35.42 29.42 35.42 29.84 35.42 30.12 35.42 31.6 35.4 32.84 34.88 33.43 34.04 34.29 32.83 34.29 31.53 34.22 30.87 34.9 30.11 35.27 28.95 35.32 27.44 35.34 26.88 35.24 26.44 35.1 26.05 35.62 25.44 36.12 24.45 36.2 23.2 36.26 22.18 36.03 21.39 35.77 20.85 36.13 20.3 36.47 19.49 36.5 18.42 36.57 14.99 33.44 13.51 31.26 13.35 31.26 13.35 26.7 13.43 26.7 13.43 26.76 13.28 26.86 13.11 26.95 12.97 27.19 12.68 28.43 11.08 29.5 7.92 30.85 3.91 27.42 1.12 27.27 1 27.27 1 27.03 0.85 27.03 0.85 27.03 0.85 26.95 0.81 26.95 0.81 26.81 0.75 26.33 0.58 25.71 0.58 25.16 0.58 24.65 0.71 24.2 0.98 23.25 1.54 22.68 2.58 22.5 4.08 22.19 6.75 19.92 9.18 18.63 10.19 18.46 10.33 18.31 10.44 18.22 10.52 17.38 11.25 16.63 12.81 15.97 14.19 15.97 14.19 15.7 14.75 15.7 14.75 15.34 15.5 14.34 16.72 13.75 17.28 13.43 17.29 13 17.29 12.61 17.3 12.35 16.57 11.92 15.67 10.95 15.67 10.95 15.67 2.82 15.67 2.82 15.67 1.63 15.67 0.5 16.82 0.5 18.07 0.5 18.07 0.5 33.3 0.5 33.3 0.5 34.49 1.55 35.42 2.82 35.42 2.82 35.42 15.01 35.42 15.01 35.42ZM 11.76 18.47C 11.76 18.47 12.19 18.46 12.19 18.46 12.74 18.46 13.58 18.44 14 18.44 14 18.44 14.2 18.43 14.2 18.43 14.2 18.43 14.36 18.29 14.36 18.29 14.98 17.76 16.25 16.28 16.75 15.26 16.75 15.26 17.02 14.69 17.02 14.69 17.57 13.54 18.32 11.97 18.98 11.4 19.07 11.33 19.19 11.23 19.35 11.11 19.74 10.8 23.21 7.97 23.65 4.21 23.78 3.1 24.17 2.35 24.79 1.98 25.06 1.82 25.37 1.74 25.71 1.74 26.08 1.74 26.37 1.83 26.47 1.87 26.47 1.87 26.58 1.93 26.58 1.93 26.89 2.2 29.45 4.44 28.4 7.55 27.38 10.58 26.18 12.07 26.02 12.28 25.76 12.65 25.2 13.58 25.51 14.26 25.51 14.26 25.66 14.57 25.66 14.57 25.66 14.57 26.12 14.6 26.12 14.6 26.12 14.6 31.23 14.51 31.23 14.51 32.68 14.62 35.39 15.57 35.34 18.39 35.32 19.38 34.94 20.06 34.63 20.45 34.63 20.45 34.39 20.77 34.39 20.77 34.39 20.77 34.59 21.11 34.59 21.11 34.83 21.5 35.1 22.16 35.04 23.13 34.97 24.26 34.45 25.11 34.02 25.5 34.02 25.5 33.71 25.78 33.71 25.78 33.71 25.78 33.88 26.17 33.88 26.17 34.07 26.57 34.18 26.92 34.16 27.4 34.1 29.08 33.61 29.88 33.21 30.24 33.21 30.24 32.97 30.46 32.97 30.46 32.97 30.46 33.03 30.78 33.03 30.78 33.1 31.12 33.25 32.3 32.49 33.37 32.19 33.79 31.41 34.24 30.1 34.25 29.83 34.26 29.42 34.26 28.91 34.26 28.91 34.26 24.89 34.25 24.89 34.25 24.89 34.25 16.57 34.25 16.57 34.25 15.64 34.25 15.06 34.25 15.02 34.25 15.02 34.25 11.53 34.25 11.53 34.25 11.53 34.25 11.53 17.75 11.53 17.75 11.57 17.86 11.6 17.97 11.63 18.06 11.63 18.06 11.76 18.47 11.76 18.47ZM 1.66 33.3C 1.66 33.3 1.66 18.07 1.66 18.07 1.66 17.46 2.27 16.84 2.82 16.84 2.82 16.84 10.37 16.84 10.37 16.84 10.37 16.84 10.37 34.25 10.37 34.25 10.37 34.25 2.82 34.25 2.82 34.25 2.29 34.25 1.66 33.92 1.66 33.3Z" fill="rgb(25,183,151)"/></svg>