<?xml version="1.0" encoding="utf-8"?>
<svg xmlns="http://www.w3.org/2000/svg"
	xmlns:xlink="http://www.w3.org/1999/xlink"
	width="72px" height="64px" viewBox="0 0 36 32">
<path fillRule="evenodd" d="M 35.67 30.46C 35.24 31.19 34.47 31.63 33.61 31.63 33.61 31.63 2.39 31.63 2.39 31.63 1.53 31.63 0.76 31.19 0.33 30.46-0.11 29.72-0.12 28.84 0.29 28.09 0.29 28.09 4.94 19.64 4.94 19.64 5.36 18.88 6.16 18.4 7.03 18.4 7.03 18.4 11.39 18.4 11.39 18.4 11.72 18.4 11.99 18.67 11.99 19.01 11.99 19.34 11.72 19.61 11.39 19.61 11.39 19.61 7.03 19.61 7.03 19.61 6.6 19.61 6.2 19.84 5.99 20.22 5.99 20.22 1.35 28.67 1.35 28.67 1.14 29.04 1.15 29.48 1.36 29.85 1.58 30.21 1.96 30.43 2.39 30.43 2.39 30.43 33.61 30.43 33.61 30.43 34.04 30.43 34.42 30.21 34.64 29.85 34.85 29.48 34.86 29.04 34.65 28.67 34.65 28.67 30.01 20.22 30.01 20.22 29.8 19.84 29.4 19.61 28.97 19.61 28.97 19.61 24.61 19.61 24.61 19.61 24.28 19.61 24.01 19.34 24.01 19.01 24.01 18.67 24.28 18.4 24.61 18.4 24.61 18.4 28.97 18.4 28.97 18.4 29.84 18.4 30.64 18.88 31.06 19.64 31.06 19.64 35.71 28.09 35.71 28.09 36.12 28.84 36.11 29.72 35.67 30.46ZM 17.99 25.97C 17.99 25.97 17.52 25.4 17.52 25.4 17.2 25 9.58 15.57 9.58 9.4 9.58 4.42 13.36 0.37 18 0.37 22.62 0.37 26.4 4.42 26.42 9.4 26.44 15.57 18.78 25 18.45 25.4 18.45 25.4 17.99 25.97 17.99 25.97ZM 18 1.57C 14.02 1.57 10.78 5.08 10.78 9.4 10.78 14.31 16.33 21.88 17.99 24.05 19.66 21.89 25.24 14.31 25.22 9.4 25.2 5.08 21.96 1.57 18 1.57ZM 14.99 8.18C 14.99 6.53 16.34 5.18 18 5.18 19.66 5.18 21.01 6.53 21.01 8.18 21.01 9.84 19.66 11.19 18 11.19 16.34 11.19 14.99 9.84 14.99 8.18ZM 18 9.99C 18.99 9.99 19.8 9.18 19.8 8.18 19.8 7.19 18.99 6.38 18 6.38 17.01 6.38 16.2 7.19 16.2 8.18 16.2 9.18 17.01 9.99 18 9.99Z" fill="rgb(25,183,151)"/></svg>