<?xml version="1.0" encoding="utf-8"?>
<svg xmlns="http://www.w3.org/2000/svg"
	xmlns:xlink="http://www.w3.org/1999/xlink"
	width="60px" height="72px" viewBox="0 0 30 36">
<path fillRule="evenodd" d="M 0.83 31.31C 0.83 31.31 3.3 31.31 3.3 31.31 3.28 31.31 3.46 31.44 3.46 31.5 3.46 31.5 3.46 35.26 3.46 35.26 3.46 35.58 3.72 35.84 4.04 35.84 4.36 35.84 4.62 35.58 4.62 35.26 4.62 35.26 4.62 31.5 4.62 31.5 4.62 31.44 4.4 31.31 4.38 31.31 4.38 31.31 6.85 31.31 6.85 31.31 7.17 31.31 7.5 31.07 7.5 30.75 7.5 30.75 7.5 23.81 7.5 23.81 7.5 23.81 10.96 23.81 10.96 23.81 10.96 23.81 10.96 24.73 10.96 24.73 10.96 25.05 11.04 25.54 11.36 25.54 11.36 25.54 15.13 25.54 15.13 25.54 18.35 25.54 20.97 22.71 20.97 19.49 20.97 16.26 18.35 13.43 15.13 13.43 15.13 13.43 11.36 13.43 11.36 13.43 11.04 13.43 10.96 13.88 10.96 14.19 10.96 14.19 10.96 15.16 10.96 15.16 10.96 15.16 6.85 15.16 6.85 15.16 1.11 15.16 0 18.13 0 19.93 0 19.93 0 30.75 0 30.75 0 31.07 0.51 31.31 0.83 31.31ZM 12.12 14.58C 12.12 14.58 15.13 14.58 15.13 14.58 17.71 14.58 19.82 16.9 19.82 19.49 19.82 22.07 17.71 24.39 15.13 24.39 15.13 24.39 12.12 24.39 12.12 24.39 12.12 24.39 12.12 23.22 12.12 23.22 12.12 23.22 12.12 15.7 12.12 15.7 12.12 15.7 12.12 14.58 12.12 14.58ZM 10.96 22.66C 10.96 22.66 7.5 22.66 7.5 22.66 7.5 22.66 7.5 16.31 7.5 16.31 7.5 16.31 10.96 16.31 10.96 16.31 10.96 16.31 10.96 22.66 10.96 22.66ZM 1.15 19.93C 1.15 17.64 2.89 16.41 6.35 16.29 6.35 16.29 6.35 23.22 6.35 23.22 6.35 23.22 6.35 30.16 6.35 30.16 6.35 30.16 1.15 30.16 1.15 30.16 1.15 30.16 1.15 19.93 1.15 19.93ZM 15.88 11.7C 15.88 11.7 18.89 11.7 18.89 11.7 19.21 11.7 19.62 11.5 19.62 11.18 19.62 11.18 19.62 10.54 19.62 10.54 19.62 10.54 23.08 10.54 23.08 10.54 23.08 10.54 23.08 17.2 23.08 17.2 23.08 17.52 23.08 18.04 23.4 18.04 23.4 18.04 25.87 18.04 25.87 18.04 25.85 18.04 25.96 17.89 25.96 17.96 25.96 17.96 25.96 35.26 25.96 35.26 25.96 35.58 26.22 35.84 26.54 35.84 26.86 35.84 27.11 35.58 27.11 35.26 27.11 35.26 27.11 17.96 27.11 17.96 27.11 17.89 26.97 18.04 26.95 18.04 26.95 18.04 29.42 18.04 29.42 18.04 29.74 18.04 30 17.52 30 17.2 30 17.2 30 6.39 30 6.39 30 4.59 29.14 1.31 23.4 1.31 23.4 1.31 19.62 1.31 19.62 1.31 19.62 1.31 19.62 0.65 19.62 0.65 19.62 0.33 19.21 0.16 18.89 0.16 18.89 0.16 15.88 0.16 15.88 0.16 12.66 0.16 10.03 2.71 10.03 5.93 10.03 9.15 12.66 11.7 15.88 11.7ZM 28.85 6.39C 28.85 6.39 28.85 16.89 28.85 16.89 28.85 16.89 24.23 16.89 24.23 16.89 24.23 16.89 24.23 9.68 24.23 9.68 24.23 9.68 24.23 2.74 24.23 2.74 27.11 2.87 28.85 4.09 28.85 6.39ZM 23.08 2.47C 23.08 2.47 23.08 9.39 23.08 9.39 23.08 9.39 19.62 9.39 19.62 9.39 19.62 9.39 19.62 2.47 19.62 2.47 19.62 2.47 23.08 2.47 23.08 2.47ZM 15.88 1.31C 15.88 1.31 18.46 1.31 18.46 1.31 18.46 1.31 18.46 2.16 18.46 2.16 18.46 2.16 18.46 9.68 18.46 9.68 18.46 9.68 18.46 10.54 18.46 10.54 18.46 10.54 15.88 10.54 15.88 10.54 13.29 10.54 11.19 8.51 11.19 5.93 11.19 3.34 13.29 1.31 15.88 1.31Z" fill="rgb(25,183,151)"/></svg>