<?xml version="1.0" encoding="utf-8"?>
<svg xmlns="http://www.w3.org/2000/svg"
	xmlns:xlink="http://www.w3.org/1999/xlink"
	width="72px" height="72px" viewBox="0 0 36 36">
<path fillRule="evenodd" d="M 18 36.01C 18 36.01 17.85 36.01 17.85 36.01 7.92 35.47-0.09 27.71-0 17.85 0.08 8.07 8.15-0.01 18-0.01 18-0.01 18.15-0.01 18.15-0.01 28.08-0.01 36.09 8.29 36 18.15 35.92 27.93 27.85 36.01 18 36.01ZM 18.14 1.08C 18.14 1.08 18 1.08 18 1.08 8.75 1.08 1.17 8.68 1.09 17.86 1.02 27.12 8.54 34.37 17.86 34.92 17.86 34.92 18 34.92 18 34.92 27.25 34.92 34.83 27.32 34.91 18.14 34.98 8.88 27.46 1.16 18.14 1.08ZM 21.26 20.92C 21.21 21.02 21.12 21.11 21.01 21.17 21.01 21.17 10.02 26.38 10.02 26.38 9.95 26.42 9.87 26.44 9.79 26.44 9.64 26.44 9.5 26.38 9.4 26.27 9.23 26.11 9.19 25.86 9.3 25.65 9.3 25.65 14.73 14.83 14.73 14.83 14.79 14.72 14.88 14.63 14.99 14.58 14.99 14.58 25.98 9.35 25.98 9.35 26.19 9.25 26.44 9.3 26.6 9.46 26.77 9.63 26.81 9.88 26.7 10.09 26.7 10.09 21.26 20.92 21.26 20.92ZM 15.63 15.48C 15.63 15.48 10.99 24.71 10.99 24.71 10.99 24.71 20.37 20.26 20.37 20.26 20.37 20.26 25.01 11.03 25.01 11.03 25.01 11.03 15.63 15.48 15.63 15.48Z" fill="rgb(25,183,151)"/></svg>