<?xml version="1.0" encoding="utf-8"?>
<svg xmlns="http://www.w3.org/2000/svg"
	xmlns:xlink="http://www.w3.org/1999/xlink"
	width="74px" height="72px" viewBox="0 0 37 36">
<path fillRule="evenodd" d="M 18.5-0C 8.57-0 0.5 8.07 0.5 18 0.5 27.92 8.57 36 18.5 36 28.43 36 36.5 27.92 36.5 18 36.5 8.07 28.43-0 18.5-0ZM 9.66 32.38C 10.3 32.12 11.09 32.1 12.28 32.1 12.28 32.1 13.97 32.1 13.97 32.1 14.16 32.1 14.33 32.01 14.43 31.85 14.43 31.85 16.38 29 16.38 29 16.46 28.88 16.48 28.75 16.47 28.62 17.11 28.94 17.79 29.12 18.49 29.12 19.21 29.12 19.91 28.93 20.56 28.6 20.54 28.73 20.57 28.88 20.65 29 20.65 29 22.65 31.86 22.65 31.86 22.75 32.01 22.92 32.1 23.11 32.1 23.11 32.1 25.14 32.1 25.14 32.1 26.23 32.1 26.86 32.11 27.38 32.35 24.8 33.95 21.76 34.88 18.5 34.88 15.26 34.88 12.23 33.97 9.66 32.38ZM 24.17 13.41C 24.81 15.6 25.35 19.46 24.11 20.48 23.98 20.59 23.91 20.75 23.91 20.91 23.91 24.04 21.36 28.01 18.49 28.01 15.63 28.01 13.08 24.04 13.08 20.91 13.08 20.83 13.06 20.76 13.03 20.69 11.39 16.96 12.78 13.51 12.79 13.47 12.82 13.4 12.83 13.33 12.83 13.26 12.83 11.4 13.17 9.99 17.36 9.99 17.47 9.99 17.57 9.96 17.66 9.9 18.86 9.16 20 8.78 21.05 8.78 22.23 8.78 23.22 9.27 23.83 10.16 24.42 11.01 24.55 12.1 24.19 13.06 24.15 13.17 24.14 13.3 24.17 13.41ZM 28.4 31.67C 27.48 30.98 26.48 30.98 25.14 30.98 25.14 30.98 23.4 30.98 23.4 30.98 23.4 30.98 21.57 28.36 21.57 28.36 21.5 28.26 21.39 28.2 21.28 28.16 23.4 26.69 24.93 23.76 25.02 21.16 26.8 19.29 25.6 14.4 25.29 13.28 25.71 12.02 25.51 10.63 24.75 9.53 23.94 8.34 22.59 7.67 21.05 7.67 19.83 7.67 18.54 8.07 17.2 8.87 12.46 8.92 11.74 10.94 11.72 13.15 11.47 13.81 10.34 17.23 11.96 21.03 12.01 23.67 13.56 26.68 15.72 28.17 15.62 28.21 15.53 28.27 15.46 28.37 15.46 28.37 13.68 30.98 13.68 30.98 13.68 30.98 12.28 30.98 12.28 30.98 10.82 30.98 9.65 30.99 8.62 31.68 4.38 28.61 1.62 23.62 1.62 18 1.62 8.69 9.19 1.11 18.5 1.11 27.81 1.11 35.38 8.69 35.38 18 35.38 23.61 32.63 28.59 28.4 31.67Z" fill="rgb(25,183,151)"/></svg>